PathFileType	4	(X/Y/Z)	webcam_static.trc
DataRate	CameraRate	NumFrames	NumMarkers	Units	OrigDataRate	OrigDataStartFrame	OrigNumFrames
29.300983568096093	29.300983568096093	16	12	mm	29.300983568096093	324	1294
Frame#	Time	JOINT_RIGHT_SHOULDER			JOINT_LEFT_SHOULDER			JOINT_RIGHT_ELBOW			JOINT_LEFT_ELBOW			JOINT_LEFT_WRIST			JOINT_RIGHT_WRIST			JOINT_RIGHT_PINKY			JOINT_LEFT_PINKY			JOINT_RIGHT_INDEX			JOINT_LEFT_INDEX			JOINT_RIGHT_HIP			JOINT_LEFT_HIP
		X1	Y1	Z1	X2	Y2	Z2	X3	Y3	Z3	X4	Y4	Z4	X5	Y5	Z5	X6	Y6	Z6	X7	Y7	Z7	X8	Y8	Z8	X9	Y9	Z9	X10	Y10	Z10	X11	Y11	Z11	X12	Y12	Z12

324	1753709319.443364	193.561062	417.563111	164.306179	125.291109	420.268327	-164.457589	170.815900	151.366815	220.887288	87.308146	179.461390	-190.918624	188.624486	-17.719673	-288.344145	257.742941	-54.103758	329.243571	278.376907	-105.819687	357.884347	211.484119	-80.580883	-323.964417	314.781189	-109.193981	346.445352	250.031382	-85.330844	-309.096247	17.717214	2.741302	119.996369	-19.026225	-1.940004	-119.252056
325	1753709319.475068	193.726450	417.565972	164.274186	125.292435	420.280755	-164.474130	170.972556	151.295155	220.861986	87.313741	179.453328	-190.822452	188.607857	-17.602252	-288.352072	257.902592	-54.050826	329.454184	278.537661	-105.771422	358.140677	211.485028	-80.381624	-324.021518	314.953387	-109.086379	346.692115	250.030935	-85.106477	-309.148967	17.781567	2.745255	120.005779	-19.091299	-1.942368	-119.262032
326	1753709319.506103	194.773868	417.511463	164.241418	126.173690	420.285076	-164.459810	172.473803	151.050285	220.842630	88.473730	179.439977	-190.662965	189.665109	-17.514085	-288.316011	259.603053	-54.036383	329.677016	280.420750	-105.759181	358.374178	212.792233	-80.230519	-324.028581	317.004681	-109.056056	346.878856	251.308650	-84.972836	-309.148699	17.778186	2.732422	120.020285	-19.088013	-1.927495	-119.276941
327	1753709319.541447	194.821760	417.633593	164.245054	126.476601	420.361042	-164.453372	172.646821	151.046559	220.826641	89.001745	179.508373	-190.646887	190.390140	-17.160863	-288.309604	260.079920	-53.670470	329.680890	281.018496	-105.317160	358.373195	213.688165	-79.850040	-324.026406	317.660719	-108.386360	346.874893	252.100855	-84.498756	-309.121579	17.769221	2.721280	120.033361	-19.078994	-1.914304	-119.290717
328	1753709319.576319	194.777399	417.835325	164.237991	126.310766	420.473278	-164.383352	172.611579	151.083887	220.821083	88.854194	179.737389	-190.615863	190.221980	-16.519908	-288.197100	259.947866	-53.627498	329.609931	280.787438	-105.279572	358.303547	213.379383	-79.206333	-323.807955	317.387521	-108.343020	346.795529	251.762897	-83.807401	-308.950663	17.754728	2.718975	120.029859	-19.065095	-1.910961	-119.286850
329	1753709319.610985	195.115209	417.854190	164.211348	126.653820	420.482665	-164.329216	172.755018	151.004165	220.759213	88.951215	179.735467	-190.482780	190.220565	-16.478827	-288.175076	259.976894	-53.615037	329.549253	280.813605	-105.288975	358.186603	213.381439	-79.158179	-323.805958	317.443997	-108.326025	346.656591	251.759946	-83.779849	-308.947176	17.766576	2.715821	120.037563	-19.078329	-1.905910	-119.294740
330	1753709319.649708	195.291072	417.872846	164.195195	127.166793	420.489669	-164.348096	172.970504	150.969565	220.744923	89.984939	179.738507	-190.513805	191.395402	-16.445929	-288.168609	260.104626	-53.613670	329.545259	280.872017	-105.298929	358.177036	214.679047	-79.111084	-323.803216	317.550749	-108.314700	346.641570	252.920538	-83.715200	-308.918566	17.725993	2.703445	120.041952	-19.037772	-1.892236	-119.298503
331	1753709319.676867	195.085511	417.949796	164.157853	126.640394	420.514971	-164.398536	172.930285	150.965750	220.724016	89.779295	179.744288	-190.598786	191.159025	-16.395319	-288.401097	259.995520	-53.609382	329.501748	280.659497	-105.303787	358.153105	214.306876	-79.073310	-324.090242	317.296475	-108.319782	346.616089	252.522707	-83.661050	-309.216559	17.768504	2.694999	120.042078	-19.081822	-1.883415	-119.298480
332	1753709319.713407	194.682568	417.960554	163.978547	126.115486	420.522094	-164.801970	172.931314	150.938362	220.712319	89.800678	179.746643	-191.172719	192.129597	-16.404945	-288.429022	260.182440	-53.748637	329.371750	280.796111	-105.357774	358.131498	215.118587	-79.157524	-324.044466	317.336947	-108.463749	346.596777	253.353596	-83.755396	-309.171110	17.768312	2.684887	120.033436	-19.081276	-1.873754	-119.288541
333	1753709319.747615	194.655553	417.966336	163.963392	126.117989	420.474410	-164.812088	172.910705	150.935233	220.706090	89.955918	179.727808	-191.197053	192.275107	-16.529625	-288.427889	260.127664	-53.885460	329.449922	280.635923	-105.504617	358.222276	215.259328	-79.329714	-324.045271	317.186236	-108.686745	346.678406	253.453434	-83.977737	-309.161127	17.747011	2.677289	120.035738	-19.060452	-1.866131	-119.290426
334	1753709319.780921	194.324329	417.908758	163.771883	126.012325	420.386404	-165.157989	172.624037	150.825202	220.681846	89.954190	179.717347	-191.631049	192.287549	-16.792929	-288.643062	259.546429	-54.189153	329.431087	279.570788	-105.664223	358.270109	215.239391	-79.602621	-324.122459	315.736353	-108.977549	346.737206	253.431708	-84.387980	-309.245020	17.735396	2.710284	120.036319	-19.047895	-1.898253	-119.290151
335	1753709319.817978	193.647176	418.017358	163.732186	124.669269	420.376778	-165.185794	172.149062	151.087210	220.699817	89.226052	179.713428	-191.710487	191.934392	-16.725736	-288.626671	259.337455	-54.172713	329.415590	279.386669	-105.644964	358.264089	214.837566	-79.551041	-324.025303	315.524668	-108.981386	346.717298	252.988458	-84.259279	-309.147894	17.734185	2.687111	120.028250	-19.046839	-1.876404	-119.281285
336	1753709319.850317	189.095512	418.019354	163.657725	118.238337	420.455664	-165.528283	166.149557	151.245669	220.751941	82.677782	179.979101	-192.130536	186.413586	-16.726520	-288.910568	252.439976	-54.135762	329.426497	270.941645	-105.466805	358.683258	207.542673	-79.660073	-324.045748	306.887478	-108.978227	347.293645	245.937929	-84.455512	-309.202343	17.806888	2.700983	120.002262	-19.111779	-1.891649	-119.253531
337	1753709319.882716	188.253939	417.732298	163.491651	117.451899	420.238614	-165.926397	165.939331	151.097447	220.761523	82.619935	179.913983	-192.687571	186.333656	-16.818650	-289.674580	252.172083	-54.414481	329.446882	270.595938	-105.549254	358.964175	207.457751	-79.747759	-324.666023	306.196392	-109.236427	347.554594	245.817095	-84.558465	-309.809864	17.890133	2.703083	119.997777	-19.191027	-1.895279	-119.248182
338	1753709319.918566	187.960297	417.634666	163.473651	117.204070	420.219630	-165.931195	166.026875	151.081309	220.940009	82.733646	179.913729	-192.730635	186.356694	-16.894072	-289.736420	252.131373	-54.410815	329.472572	270.522118	-105.473571	359.080136	207.468987	-79.841360	-324.692458	305.945605	-109.218143	347.691357	245.825544	-84.702246	-309.835196	17.904706	2.690916	119.989179	-19.204415	-1.885030	-119.238079
339	1753709319.949033	186.455220	417.661846	163.481787	115.912832	420.230359	-165.885314	165.318817	151.195467	221.067175	82.321413	179.933682	-192.737058	186.279669	-16.894838	-289.690912	251.837432	-54.249816	329.482704	270.370692	-105.176084	359.087110	207.483843	-79.866812	-324.611008	305.787027	-108.981237	347.711146	245.816052	-84.727064	-309.744090	17.900025	2.652372	119.979002	-19.199630	-1.850545	-119.227223
